#Comment line ignore any data following # character 
#Hierarchical Translation and Rotation (.htr) file 
[Header]	
#Header keywords are followed by a single value 
FileType HTR		#Single word string
DataType HTRS		#Translation followed by rotation and scale data
FileVersion 1		#integer
NumSegments 23		#integer
NumFrames 4		#integer
DataFrameRate 30		#integer, data frame rate in this file
EulerRotationOrder ZYX
CalibrationUnits mm
RotationUnits Degrees
GlobalAxisofGravity Y
BoneLengthAxis Y
ScaleFactor 1.00
[SegmentNames&Hierarchy]
#CHILD	PARENT
MASTER GLOBAL
weapon MASTER
arm_lock_bottom_part1 weapon
arm_lock_bottom_part2 weapon
arm_lock_bottom_part3 weapon
arm_lock_bottom_part4 weapon
arm_lock_top_part1 weapon
arm_lock_top_part2 weapon
arm_lock_top_part3 weapon
front_lower_left_part1 weapon
front_lower_right_part1 weapon
front_top_left_part weapon
front_top_right_part1 weapon
scope_part1 weapon
scope_part2 weapon
front_lower_left_part2 front_lower_left_part1
front_lower_left_part3 front_lower_left_part2
front_lower_right_part2 front_lower_right_part1
front_lower_right_part3 front_lower_right_part2
front_top_left_part2 front_top_left_part
front_top_left_part3 front_top_left_part2
front_top_right_part2 front_top_right_part1
front_top_right_part3 front_top_right_part2
[BasePosition]
#SegmentName Tx, Ty, Tz, Rx, Ry, Rz, BoneLength
MASTER 0.000000 0.000000 0.000000 -90.000000 0.000000 0.000000 10.000000 
weapon 0.000000 0.000000 0.000000 0.000000 0.000000 0.000000 10.000000 
arm_lock_bottom_part1 0.000000 0.000000 0.000000 0.000000 0.000000 0.000000 10.000000 
arm_lock_bottom_part2 0.000000 0.000000 0.000000 0.000000 0.000000 0.000000 10.000000 
arm_lock_bottom_part3 0.000000 0.000000 0.000000 0.000000 0.000000 0.000000 10.000000 
arm_lock_bottom_part4 0.000000 0.000000 0.000000 0.000000 0.000000 0.000000 10.000000 
arm_lock_top_part1 0.000000 0.000000 0.000000 0.000000 0.000000 0.000000 10.000000 
arm_lock_top_part2 0.000000 0.000000 0.000000 0.000000 0.000000 0.000000 10.000000 
arm_lock_top_part3 0.000000 0.000000 0.000000 0.000000 0.000000 0.000000 10.000000 
front_lower_left_part1 0.000000 0.000000 0.000000 0.000000 0.000000 0.000000 10.000000 
front_lower_right_part1 0.000000 0.000000 0.000000 0.000000 0.000000 0.000000 10.000000 
front_top_left_part 0.000000 0.000000 0.000000 0.000000 0.000000 0.000000 10.000000 
front_top_right_part1 0.000000 0.000000 0.000000 0.000000 0.000000 0.000000 10.000000 
scope_part1 0.000000 0.000000 0.000000 0.000000 0.000000 0.000000 10.000000 
scope_part2 0.000000 0.000000 0.000000 0.000000 0.000000 0.000000 10.000000 
front_lower_left_part2 0.000000 0.000000 0.000000 0.000000 0.000000 0.000000 10.000000 
front_lower_left_part3 0.000000 0.000000 0.000000 0.000000 0.000000 0.000000 10.000000 
front_lower_right_part2 0.000000 0.000000 0.000000 0.000000 0.000000 0.000000 10.000000 
front_lower_right_part3 0.000000 0.000000 0.000000 0.000000 0.000000 0.000000 10.000000 
front_top_left_part2 0.000000 0.000000 0.000000 0.000000 0.000000 0.000000 10.000000 
front_top_left_part3 0.000000 0.000000 0.000000 0.000000 0.000000 0.000000 10.000000 
front_top_right_part2 0.000000 0.000000 0.000000 0.000000 0.000000 0.000000 10.000000 
front_top_right_part3 0.000000 0.000000 0.000000 0.000000 0.000000 0.000000 10.000000 
#Beginning of Data. Separated by tabs
#Fr	Tx	Ty	Tz	Rx	Ry	Rz	SF
[MASTER]
23 0.000000 -0.000019 0.000002 0.002458 -0.000000 0.000000 0.000019
24 0.000000 -0.000019 0.000002 0.002458 -0.000000 0.000000 0.000019
25 0.000000 -0.000019 0.000002 0.002458 -0.000000 0.000000 0.000019
26 0.000000 -0.000019 0.000002 0.002458 -0.000000 0.000000 0.000019
[weapon]
23 10.182495 -168.977966 -13.084106 -0.002473 -0.000000 -0.000020 169.789368
24 10.182419 -168.977966 -13.084106 -0.002473 -0.000000 -0.000020 169.789368
25 10.182419 -168.977890 -13.084030 -0.002473 -0.000000 -0.000020 169.789276
26 10.182419 -168.977966 -13.084106 -0.002473 -0.000000 -0.000020 169.789368
[arm_lock_bottom_part1]
23 -48.820034 98.566185 -83.498901 -179.997589 -51.814346 9.385672 138.096909
24 -48.820034 98.566185 -83.498901 -179.997589 -51.814346 9.385672 138.096909
25 -48.820034 98.566185 -83.498901 -179.997589 -51.814346 9.385672 138.096909
26 -48.820034 98.566185 -83.498901 -179.997589 -51.814346 9.385672 138.096909
[arm_lock_bottom_part2]
23 -49.022778 58.781982 -78.526520 179.999893 -59.493954 6.579129 109.658417
24 -49.022778 58.781982 -78.526520 179.999893 -59.493938 6.579128 109.658417
25 -49.022778 58.781982 -78.526520 179.999893 -59.493954 6.579130 109.658417
26 -49.022778 58.781982 -78.526520 179.999893 -59.493954 6.579130 109.658417
[arm_lock_bottom_part3]
23 -51.266434 -16.798199 -66.920387 -179.995651 -73.908356 4.319704 85.957924
24 -51.266434 -16.798199 -66.920387 -179.999619 -66.224586 4.324908 85.957924
25 -51.266434 -16.798199 -66.920387 179.997879 -47.891418 4.327535 85.957924
26 -51.266434 -16.798199 -66.920387 179.998764 -26.014912 4.327713 85.957924
[arm_lock_bottom_part4]
23 -40.078083 -93.503029 -59.330029 179.998337 -26.780123 1.323942 117.767235
24 -40.078083 -93.503029 -59.330029 -179.999222 -7.951346 1.320369 117.767235
25 -40.078083 -93.503029 -59.330029 -179.999222 -7.951346 1.320369 117.767235
26 -40.078083 -93.503029 -59.330029 -179.999222 -7.951346 1.320369 117.767235
[arm_lock_top_part1]
23 -47.532562 61.554470 78.379471 0.010751 80.686218 -9.987710 110.415756
24 -47.532562 61.554470 78.379471 0.010751 80.686218 -9.987710 110.415756
25 -47.532562 61.554470 78.379471 0.010751 80.686218 -9.987710 110.415756
26 -47.532562 61.554470 78.379471 0.010751 80.686218 -9.987710 110.415756
[arm_lock_top_part2]
23 -45.622692 13.709888 63.393517 -179.992584 70.671555 172.285812 79.297722
24 -45.622692 13.709888 63.393517 179.987030 82.038857 172.265396 79.297722
25 -45.622692 13.709888 63.393517 -0.002307 70.847801 -7.725439 79.297722
26 -45.622692 13.709888 63.393517 0.001814 38.483009 -7.719477 79.297722
[arm_lock_top_part3]
23 -43.788521 -73.747162 72.061607 -0.001409 29.550203 -4.531561 112.022110
24 -43.788521 -73.747162 72.061607 0.001593 0.001724 -4.534721 112.022110
25 -43.788521 -73.747162 72.061607 -0.001900 4.967538 -4.534110 112.022110
26 -43.788521 -73.747162 72.061607 0.001593 0.001734 -4.534721 112.022110
[front_lower_left_part1]
23 -46.798580 475.070923 -43.538815 0.000000 0.000003 -0.000000 479.351746
24 -46.798580 475.070923 -43.538815 0.000000 0.000003 -0.000000 479.351746
25 -46.798580 475.070923 -43.538815 0.000000 0.000003 -0.000000 479.351746
26 -46.798580 475.070923 -43.538815 0.000000 0.000003 -0.000000 479.351746
[front_lower_right_part1]
23 26.433397 475.070923 -43.538826 0.000000 -0.000000 -0.000000 477.793640
24 26.433397 475.070923 -43.538826 0.000000 -0.000000 -0.000000 477.793640
25 26.433397 475.070923 -43.538826 0.000000 -0.000000 -0.000000 477.793640
26 26.433397 475.070923 -43.538826 0.000000 -0.000000 -0.000000 477.793640
[front_top_left_part]
23 -47.897255 494.788696 7.031011 -0.000000 0.000003 -0.000001 497.151367
24 -47.897255 494.788696 7.031011 -0.000000 0.000003 -0.000001 497.151367
25 -47.897255 494.788696 7.031011 -0.000000 0.000003 -0.000001 497.151367
26 -47.897255 494.788696 7.031011 -0.000000 0.000003 -0.000001 497.151367
[front_top_right_part1]
23 27.532097 494.788727 7.031008 0.000000 -0.000000 -0.000000 495.604004
24 27.532097 494.788727 7.031008 0.000000 -0.000000 -0.000000 495.604004
25 27.532097 494.788727 7.031008 0.000000 -0.000000 -0.000000 495.604004
26 27.532097 494.788727 7.031008 0.000000 -0.000000 -0.000000 495.604004
[scope_part1]
23 -10.754304 87.338959 156.453140 -6.705776 42.943565 -4.581131 179.503021
24 -10.754304 87.338959 156.453140 -6.947280 45.007084 -4.922113 179.503021
25 -10.754304 87.338959 156.453140 -7.234274 47.240726 -5.322602 179.503021
26 -10.754304 87.338959 156.453140 -7.582308 49.633030 -5.790066 179.503021
[scope_part2]
23 -10.754300 82.597374 156.860001 -9.747204 59.666485 -8.431907 177.603607
24 -10.754300 82.597374 156.860001 -10.541415 62.130039 -9.341538 177.603607
25 -10.754300 82.597374 156.860001 -11.578709 64.792717 -10.503646 177.603607
26 -10.754300 82.597374 156.860001 -12.988887 67.629768 -12.040623 177.603607
[front_lower_left_part2]
23 -55.193569 141.618454 32.268322 0.001886 0.001397 16.927948 155.381348
24 -55.193569 141.618454 32.268322 0.001886 0.001397 16.927948 155.381348
25 -55.193569 141.618454 32.268322 0.001886 0.001397 16.927948 155.381348
26 -55.193569 141.618454 32.268322 0.001886 0.001397 16.927948 155.381348
[front_lower_left_part3]
23 -10.943815 108.509422 -11.124855 25.237423 -27.427294 8.121859 109.625839
24 -10.943815 108.509422 -11.124855 25.873335 -26.833540 6.727455 109.625839
25 -10.943815 108.509422 -11.124855 26.501829 -26.213116 5.319520 109.625839
26 -10.943815 108.509422 -11.124855 27.117249 -25.574768 3.912132 109.625839
[front_lower_right_part2]
23 55.193596 141.618317 32.268330 0.001480 0.001822 -11.824665 155.381226
24 55.193596 141.618317 32.268330 0.001480 0.001822 -11.824665 155.381226
25 55.193596 141.618317 32.268330 0.001480 0.001822 -11.824665 155.381226
26 55.193596 141.618317 32.268330 0.001480 0.001822 -11.824665 155.381226
[front_lower_right_part3]
23 10.943837 108.509453 -11.124846 27.136301 25.559410 -3.871426 109.625862
24 10.943837 108.509453 -11.124846 27.419828 25.246609 -3.208953 109.625862
25 10.943837 108.509453 -11.124846 27.709465 24.927046 -2.527914 109.625862
26 10.943837 108.509453 -11.124846 27.998571 24.590607 -1.832294 109.625862
[front_top_left_part2]
23 -68.606705 132.667831 55.914703 11.079756 0.000004 13.726176 159.480682
24 -68.606705 132.667831 55.914700 11.079756 0.000004 13.726177 159.480682
25 -68.606705 132.667831 55.914696 11.079756 0.000004 13.726176 159.480682
26 -68.606705 132.667831 55.914692 11.079756 0.000004 13.726176 159.480682
[front_top_left_part3]
23 -28.216480 149.656799 49.959614 -24.930355 -8.047123 -75.296310 160.278793
24 -28.216480 149.656799 49.959614 -25.002569 -7.806564 -74.775665 160.278793
25 -28.216480 149.656799 49.959614 -25.072529 -7.565365 -74.255623 160.278793
26 -28.216480 149.656799 49.959614 -25.143583 -7.318554 -73.721443 160.278793
[front_top_right_part2]
23 62.566147 124.344597 58.663292 14.077118 -1.062711 -17.004618 151.054565
24 62.566147 124.344597 58.663288 14.077118 -1.062711 -17.004618 151.054565
25 62.566147 124.344597 58.663288 14.077118 -1.062711 -17.004618 151.054565
26 62.566147 124.344597 58.663288 14.077118 -1.062711 -17.004618 151.054565
[front_top_right_part3]
23 28.216452 149.656952 49.959507 -24.723932 8.709850 76.737122 160.278885
24 28.216452 149.656952 49.959507 -24.723932 8.709850 76.737122 160.278885
25 28.216452 149.656952 49.959507 -24.723932 8.709850 76.737122 160.278885
26 28.216452 149.656952 49.959507 -24.723932 8.709850 76.737122 160.278885
